<?xml version="1.0" encoding="UTF-8"?>
<svg version="1.1" xmlns="http://www.w3.org/2000/svg" width="64" height="64">
<path d="M0 0 C3.99529508 0.53451794 5.72566892 2.44087299 8.4375 5.3125 C10.87518499 7.8464094 13.17015783 10.13395404 15.9375 12.3125 C18.23364823 14.19116673 19.13471997 15.16817446 20 18 C19.814375 19.216875 19.62875 20.43375 19.4375 21.6875 C19.38033932 24.79704085 19.76507385 25.74685509 21.9140625 28.0625 C24.31437207 29.9884121 26.75719277 31.83779383 29.23632812 33.66064453 C32.54655017 36.17447041 35.67029749 38.90633378 38.8125 41.625 C39.43390869 42.1511792 40.05531738 42.6773584 40.69555664 43.21948242 C51.56915806 52.57651408 51.56915806 52.57651408 52.5 57.8125 C52 60 52 60 50 62 C45.98751126 62.24566258 44.03304885 61.81477259 40.85546875 59.30859375 C34.17520391 52.76871977 28.20590366 45.41154264 22.71484375 37.85546875 C19.15009028 32.52534359 19.15009028 32.52534359 13.8671875 29.453125 C11.90575811 29.55753569 9.95139993 29.77606886 8 30 C2.49765827 27.42443578 -1.00319754 22.87197519 -4.94921875 18.33984375 C-6.89011948 16.04714774 -6.89011948 16.04714774 -8.7890625 14.328125 C-9.18867188 13.88984375 -9.58828125 13.4515625 -10 13 C-9.6875 10.8125 -9.6875 10.8125 -9 9 C-5.09714233 10.58667578 -2.66479018 13.13350481 0.25 16.125 C1.14203125 17.03507812 2.0340625 17.94515625 2.953125 18.8828125 C3.62859375 19.58148437 4.3040625 20.28015625 5 21 C5.33 20.67 5.66 20.34 6 20 C5.2059375 19.25234375 4.411875 18.5046875 3.59375 17.734375 C2.56197938 16.74012331 1.53075775 15.74530171 0.5 14.75 C-0.02464844 14.25886719 -0.54929687 13.76773437 -1.08984375 13.26171875 C-2.47090052 11.91653358 -3.74264472 10.4614714 -5 9 C-5 7.68 -5 6.36 -5 5 C0.04806914 5.35991718 2.52239866 8.04398041 5.8125 11.5625 C6.31458984 12.08263672 6.81667969 12.60277344 7.33398438 13.13867188 C8.56529127 14.4168857 9.7839407 15.70727147 11 17 C9.41332422 13.09714233 6.86649519 10.66479018 3.875 7.75 C2.96492187 6.85796875 2.05484375 5.9659375 1.1171875 5.046875 C0.41851562 4.37140625 -0.28015625 3.6959375 -1 3 C-0.67 2.01 -0.34 1.02 0 0 Z " fill="#FE9A00" transform="translate(11,1)"/>
<path d="M0 0 C2.38527062 1.9082165 3.29939676 2.84348031 4.1875 5.75 C4.67328712 10.99650092 4.0725004 14.32633272 1.1875 18.75 C-3.34140597 23.85953494 -7.41620701 24.52727967 -14.10546875 25.29296875 C-17.02432942 25.59623233 -17.02432942 25.59623233 -19.8125 27.75 C-22.09647032 27.40394389 -23.74659037 26.78295481 -25.8125 25.75 C-25.35617188 24.97076172 -25.35617188 24.97076172 -24.890625 24.17578125 C-23.53946895 21.13568014 -23.11659326 18.21588509 -22.5625 14.9375 C-21.29757251 8.79812971 -19.81335007 4.65651647 -14.8125 0.75 C-10.09265236 -2.03349989 -5.00417821 -2.2240792 0 0 Z " fill="#FE9A00" transform="translate(58.8125,2.25)"/>
<path d="M0 0 C0.99 0 1.98 0 3 0 C4.6875 2 4.6875 2 6 4 C3.45016691 9.74046193 -0.98692815 14.2419117 -5 19 C-5.77472656 19.9590625 -6.54945312 20.918125 -7.34765625 21.90625 C-13.70696999 29.498158 -13.70696999 29.498158 -17.875 30.3125 C-21 30 -21 30 -23 29 C-24.69846121 25.60307759 -24.07782761 23.5927587 -23 20 C-18.52952617 13.65284262 -11.11198048 9.04913088 -5.01171875 4.35546875 C-2.0792717 2.16018295 -2.0792717 2.16018295 0 0 Z " fill="#FE9A00" transform="translate(25,33)"/>
</svg>
